<svg xmlns="http://www.w3.org/2000/svg" xmlns:xlink="http://www.w3.org/1999/xlink" viewBox="0,0,256,256" width="20px" height="20px"><g fill="#9aa0a6" fill-rule="nonzero" stroke="none" stroke-width="1" stroke-linecap="butt" stroke-linejoin="miter" stroke-miterlimit="10" stroke-dasharray="" stroke-dashoffset="0" font-family="none" font-weight="none" font-size="none" text-anchor="none" style="mix-blend-mode: normal"><g transform="scale(5.12,5.12)"><path d="M21,4c-9.91776,0 -18,8.08224 -18,18c0,9.91776 8.08224,18 18,18c3.62177,0 6.99231,-1.08607 9.82031,-2.9375l12.55859,12.55859l4.24219,-4.24219l-12.39648,-12.39648c2.35686,-3.04404 3.77539,-6.84769 3.77539,-10.98242c0,-9.91776 -8.08224,-18 -18,-18zM21,8c7.75624,0 14,6.24376 14,14c0,7.75624 -6.24376,14 -14,14c-7.75624,0 -14,-6.24376 -14,-14c0,-7.75624 6.24376,-14 14,-14z"></path></g></g></svg>